<svg width="75" height="277" viewBox="0 0 75 277" fill="none" xmlns="http://www.w3.org/2000/svg">
<path d="M11.0002 171.08C13.1402 171.08 15.2102 174.45 16.0602 177.28C19.7502 176.63 23.2602 175.46 26.5202 173.86C25.5302 171.06 25.0702 166.94 27.0402 165.8C28.8902 164.73 32.3602 166.61 34.5202 168.64C37.3302 166.27 39.8102 163.51 41.8702 160.45C39.6102 158.52 37.1502 155.18 38.2902 153.21C39.3602 151.35 43.3102 151.25 46.1902 151.93C47.4202 148.53 48.2002 144.92 48.4502 141.16C45.5302 140.62 41.7302 138.96 41.7302 136.68C41.7302 134.54 45.1002 132.47 47.9302 131.63C47.2802 127.94 46.1102 124.42 44.5102 121.16C41.7102 122.16 37.5802 122.62 36.4502 120.64C35.3802 118.79 37.2602 115.32 39.2902 113.17C36.9202 110.36 34.1602 107.88 31.1002 105.82C29.1702 108.08 25.8302 110.53 23.8602 109.4C22.0002 108.33 21.9002 104.38 22.5802 101.5C19.1802 100.27 15.5702 99.49 11.8002 99.24C11.2602 102.16 9.60019 105.95 7.33019 105.95C5.19019 105.95 3.1202 102.58 2.2702 99.75C-1.41981 100.4 -4.9298 101.57 -8.1898 103.17C-7.1998 105.97 -6.73981 110.09 -8.70981 111.23C-10.5598 112.3 -14.0298 110.42 -16.1798 108.39C-18.9998 110.76 -21.4698 113.52 -23.5298 116.58C-21.2698 118.51 -18.8198 121.85 -19.9498 123.82C-21.0198 125.68 -24.9698 125.78 -27.8498 125.1C-29.0798 128.5 -29.8598 132.11 -30.1098 135.87C-27.1898 136.41 -23.3898 138.07 -23.3898 140.35C-23.3898 142.49 -26.7598 144.56 -29.5898 145.4C-28.9398 149.09 -27.7698 152.61 -26.1698 155.87C-23.3698 154.88 -19.2498 154.41 -18.1098 156.39C-17.0398 158.24 -18.9198 161.71 -20.9498 163.86C-18.5798 166.68 -15.8198 169.15 -12.7598 171.21C-10.8298 168.95 -7.48981 166.49 -5.51981 167.63C-3.65981 168.7 -3.55981 172.65 -4.23981 175.53C-0.839807 176.76 2.77019 177.54 6.54019 177.79C7.07019 174.87 8.73019 171.08 11.0002 171.08ZM-17.0598 138.52C-17.0598 124.04 -5.31981 112.3 9.16019 112.3C23.6402 112.3 35.3802 124.04 35.3802 138.52C35.3802 153 23.6402 164.74 9.16019 164.74C-5.31981 164.74 -17.0598 153 -17.0598 138.52Z" fill="#9704EC" fill-opacity="0.5"/>
<path d="M30.5903 138.52C30.5903 150.33 20.9803 159.94 9.17027 159.94C-2.63973 159.94 -12.2497 150.33 -12.2497 138.52C-12.2497 126.71 -2.63973 117.1 9.17027 117.1C20.9803 117.09 30.5903 126.7 30.5903 138.52ZM32.2803 138.52C32.2803 125.75 21.9303 115.41 9.16027 115.41C-3.60973 115.41 -13.9497 125.76 -13.9497 138.52C-13.9497 151.29 -3.59973 161.64 9.16027 161.64C21.9303 161.63 32.2803 151.28 32.2803 138.52Z" fill="#9704EC" fill-opacity="0.5"/>
<path d="M-2.57988 91.96C-0.99988 91.96 0.530118 94.45 1.16012 96.55C3.89012 96.07 6.49012 95.2 8.90012 94.02C8.16012 91.95 7.82012 88.9 9.28012 88.05C10.6501 87.26 13.2201 88.65 14.8101 90.15C16.8901 88.4 18.7301 86.35 20.2501 84.09C18.5801 82.66 16.7601 80.19 17.6001 78.73C18.3901 77.36 21.3201 77.28 23.4501 77.79C24.3601 75.27 24.9401 72.6 25.1201 69.82C22.9601 69.42 20.1501 68.19 20.1501 66.51C20.1501 64.93 22.6401 63.4 24.7401 62.77C24.2601 60.04 23.3901 57.44 22.2101 55.02C20.1301 55.76 17.0801 56.1 16.2401 54.64C15.4501 53.27 16.8401 50.7 18.3401 49.11C16.5901 47.03 14.5501 45.19 12.2801 43.67C10.8501 45.34 8.38012 47.16 6.92012 46.32C5.55012 45.53 5.47012 42.6 5.98012 40.47C3.47012 39.56 0.790117 38.98 -1.98988 38.8C-2.38988 40.96 -3.61988 43.77 -5.29988 43.77C-6.87988 43.77 -8.40988 41.28 -9.03988 39.18C-11.7699 39.66 -14.3699 40.53 -16.7799 41.71C-16.0399 43.78 -15.6999 46.83 -17.1599 47.67C-18.5299 48.46 -21.0999 47.07 -22.6899 45.57C-24.7699 47.32 -26.6099 49.37 -28.1299 51.63C-26.4599 53.06 -24.6399 55.53 -25.4799 56.99C-26.2699 58.36 -29.1999 58.44 -31.3299 57.94C-32.2399 60.46 -32.8199 63.13 -32.9999 65.91C-30.8399 66.31 -28.0299 67.54 -28.0299 69.22C-28.0299 70.8 -30.5199 72.33 -32.6199 72.96C-32.1399 75.69 -31.2699 78.29 -30.0899 80.71C-28.0199 79.97 -24.9699 79.63 -24.1199 81.09C-23.3299 82.46 -24.7199 85.03 -26.2199 86.62C-24.4699 88.7 -22.4199 90.54 -20.1599 92.06C-18.7299 90.39 -16.2599 88.57 -14.7999 89.41C-13.4299 90.2 -13.3499 93.13 -13.8499 95.26C-11.3399 96.17 -8.65988 96.75 -5.87988 96.93C-5.48988 94.77 -4.25988 91.96 -2.57988 91.96ZM-23.3399 67.86C-23.3399 57.14 -14.6499 48.45 -3.92988 48.45C6.79012 48.45 15.4801 57.14 15.4801 67.86C15.4801 78.58 6.79012 87.27 -3.92988 87.27C-14.6599 87.27 -23.3399 78.58 -23.3399 67.86Z" fill="#9704EC" fill-opacity="0.5"/>
<path d="M11.9199 67.86C11.9199 76.6 4.80992 83.71 -3.93008 83.71C-12.6701 83.71 -19.7801 76.6 -19.7801 67.86C-19.7801 59.12 -12.6701 52.01 -3.93008 52.01C4.79992 52.01 11.9199 59.12 11.9199 67.86ZM13.1699 67.86C13.1699 58.41 5.50992 50.75 -3.94008 50.75C-13.3901 50.75 -21.0501 58.41 -21.0501 67.86C-21.0501 77.31 -13.3901 84.97 -3.94008 84.97C5.50992 84.97 13.1699 77.31 13.1699 67.86Z" fill="#9704EC" fill-opacity="0.5"/>
<path d="M3.34988 233.54C4.88988 233.18 6.94988 235.26 8.02988 237.16C10.5799 236.07 12.9199 234.64 14.9999 232.94C13.8099 231.09 12.7899 228.19 14.0199 227.04C15.1799 225.96 17.9899 226.73 19.8799 227.83C21.5099 225.65 22.8399 223.25 23.8099 220.69C21.8599 219.68 19.5299 217.68 20.0199 216.07C20.4799 214.55 23.3099 213.82 25.4999 213.83C25.8199 211.17 25.7699 208.44 25.3199 205.68C23.1199 205.78 20.1099 205.21 19.7299 203.58C19.3699 202.04 21.4499 199.98 23.3499 198.9C22.2599 196.35 20.8299 194.01 19.1299 191.93C17.2699 193.12 14.3799 194.14 13.2299 192.91C12.1499 191.75 12.9199 188.94 14.0199 187.05C11.8399 185.42 9.43988 184.09 6.88988 183.12C5.86988 185.07 3.87988 187.4 2.26988 186.91C0.749876 186.45 0.0198786 183.62 0.0298786 181.43C-2.63012 181.11 -5.36012 181.15 -8.12012 181.61C-8.02012 183.81 -8.58012 186.82 -10.2201 187.2C-11.7601 187.56 -13.8201 185.48 -14.9001 183.58C-17.4501 184.67 -19.7901 186.1 -21.8701 187.8C-20.6801 189.65 -19.6601 192.55 -20.8901 193.7C-22.0501 194.78 -24.8601 194.01 -26.7501 192.91C-28.3801 195.09 -29.7101 197.49 -30.6801 200.05C-28.7301 201.07 -26.4001 203.06 -26.8901 204.67C-27.3501 206.19 -30.1801 206.92 -32.3701 206.91C-32.6901 209.57 -32.6501 212.3 -32.1901 215.06C-29.9901 214.96 -26.9801 215.53 -26.6001 217.16C-26.2401 218.7 -28.3201 220.76 -30.2301 221.84C-29.1401 224.39 -27.7101 226.73 -26.0101 228.81C-24.1601 227.62 -21.2601 226.6 -20.1101 227.83C-19.0301 228.99 -19.8001 231.8 -20.9101 233.69C-18.7301 235.32 -16.3301 236.65 -13.7701 237.62C-12.7601 235.67 -10.7601 233.34 -9.15012 233.83C-7.63012 234.29 -6.90013 237.12 -6.91013 239.31C-4.25013 239.63 -1.52012 239.59 1.23988 239.13C1.14988 236.94 1.71988 233.92 3.34988 233.54ZM-22.3301 214.76C-24.7501 204.32 -18.2601 193.89 -7.82013 191.47C2.61987 189.05 13.0499 195.54 15.4699 205.99C17.8899 216.43 11.3999 226.86 0.949877 229.28C-9.47012 231.7 -19.9001 225.2 -22.3301 214.76Z" fill="#9704EC" fill-opacity="0.5"/>
<path d="M12.0203 206.79C14.0003 215.31 8.6803 223.84 0.160304 225.82C-8.3597 227.8 -16.8897 222.48 -18.8697 213.96C-20.8497 205.44 -15.5297 196.91 -7.00969 194.93C1.51031 192.95 10.0403 198.27 12.0203 206.79ZM13.2403 206.5C11.1003 197.3 1.91031 191.57 -7.28969 193.71C-16.4897 195.85 -22.2197 205.04 -20.0797 214.24C-17.9397 223.44 -8.74969 229.17 0.450305 227.03C9.6503 224.9 15.3803 215.71 13.2403 206.5Z" fill="#9704EC" fill-opacity="0.5"/>
<path d="M48.3508 103.75C49.4808 103.75 50.5608 105.52 51.0108 107.01C52.9508 106.67 54.8008 106.05 56.5108 105.21C55.9908 103.74 55.7508 101.57 56.7808 100.97C57.7508 100.41 59.5808 101.4 60.7108 102.46C62.1908 101.21 63.4908 99.76 64.5808 98.15C63.3908 97.13 62.1008 95.38 62.7008 94.34C63.2608 93.36 65.3408 93.31 66.8608 93.67C67.5108 91.88 67.9208 89.98 68.0508 88C66.5108 87.72 64.5208 86.84 64.5208 85.64C64.5208 84.51 66.2908 83.43 67.7808 82.98C67.4408 81.04 66.8208 79.19 65.9808 77.47C64.5008 77.99 62.3408 78.24 61.7408 77.2C61.1808 76.23 62.1708 74.4 63.2308 73.27C61.9808 71.79 60.5308 70.49 58.9208 69.4C57.9008 70.59 56.1508 71.88 55.1108 71.28C54.1308 70.72 54.0808 68.64 54.4408 67.12C52.6508 66.47 50.7508 66.06 48.7708 65.93C48.4908 67.47 47.6108 69.46 46.4208 69.46C45.2908 69.46 44.2108 67.69 43.7608 66.2C41.8208 66.54 39.9708 67.16 38.2608 68C38.7808 69.47 39.0208 71.64 37.9908 72.24C37.0208 72.8 35.1908 71.81 34.0608 70.75C32.5808 72 31.2808 73.45 30.1908 75.06C31.3808 76.08 32.6708 77.83 32.0708 78.87C31.5108 79.85 29.4308 79.9 27.9108 79.54C27.2608 81.33 26.8508 83.23 26.7208 85.21C28.2608 85.5 30.2508 86.37 30.2508 87.57C30.2508 88.7 28.4808 89.78 26.9908 90.23C27.3308 92.17 27.9508 94.02 28.7908 95.74C30.2608 95.22 32.4308 94.97 33.0308 96.01C33.5908 96.98 32.6008 98.81 31.5408 99.94C32.7908 101.42 34.2408 102.73 35.8508 103.81C36.8708 102.62 38.6208 101.33 39.6608 101.93C40.6408 102.49 40.6908 104.57 40.3308 106.09C42.1208 106.74 44.0208 107.15 46.0008 107.28C46.2908 105.75 47.1608 103.75 48.3508 103.75ZM33.5908 86.62C33.5908 79 39.7708 72.82 47.3808 72.82C55.0008 72.82 61.1708 79 61.1708 86.62C61.1708 94.24 54.9908 100.41 47.3808 100.41C39.7708 100.42 33.5908 94.24 33.5908 86.62Z" fill="#9704EC" fill-opacity="0.5"/>
<path d="M58.6608 86.62C58.6608 92.83 53.6008 97.89 47.3908 97.89C41.1808 97.89 36.1208 92.83 36.1208 86.62C36.1208 80.41 41.1808 75.35 47.3908 75.35C53.6008 75.35 58.6608 80.41 58.6608 86.62ZM59.5508 86.62C59.5508 79.9 54.1108 74.46 47.3908 74.46C40.6708 74.46 35.2308 79.9 35.2308 86.62C35.2308 93.34 40.6708 98.78 47.3908 98.78C54.1008 98.78 59.5508 93.34 59.5508 86.62Z" fill="#9704EC" fill-opacity="0.5"/>
<path d="M17.0499 36.7C18.1399 36.7 19.1999 38.42 19.6299 39.87C21.5199 39.54 23.3099 38.94 24.9799 38.12C24.4699 36.69 24.2399 34.58 25.2399 34C26.1899 33.45 27.9599 34.41 29.0599 35.45C30.4999 34.24 31.7599 32.83 32.8099 31.26C31.6599 30.27 30.3999 28.57 30.9799 27.56C31.5299 26.61 33.5499 26.56 35.0199 26.91C35.6499 25.17 36.0499 23.33 36.1699 21.41C34.6799 21.13 32.7399 20.28 32.7399 19.12C32.7399 18.03 34.4599 16.97 35.9099 16.54C35.5799 14.65 34.9799 12.86 34.1599 11.19C32.7299 11.7 30.6199 11.93 30.0399 10.93C29.4899 9.98 30.4499 8.21 31.4899 7.11C30.2799 5.67 28.8699 4.41 27.3099 3.36C26.3199 4.51 24.6199 5.77 23.6099 5.19C22.6599 4.64 22.6099 2.63 22.9599 1.15C21.2199 0.52 19.3799 0.12 17.4599 0C17.1799 1.49 16.3399 3.43 15.1699 3.43C14.0799 3.43 13.0199 1.71 12.5899 0.26C10.6999 0.59 8.90992 1.19 7.23992 2.01C7.74992 3.44 7.97992 5.55 6.97992 6.13C6.02992 6.68 4.25992 5.72 3.15992 4.68C1.71992 5.89 0.45992 7.3 -0.59008 8.87C0.55992 9.86 1.81992 11.56 1.23992 12.57C0.689922 13.52 -1.32008 13.57 -2.80008 13.22C-3.43008 14.96 -3.83008 16.8 -3.95008 18.72C-2.46008 19 -0.520081 19.85 -0.520081 21.01C-0.520081 22.1 -2.24008 23.16 -3.69008 23.59C-3.36008 25.48 -2.76008 27.27 -1.94008 28.94C-0.510079 28.43 1.59992 28.2 2.17992 29.2C2.72992 30.15 1.76992 31.92 0.729919 33.02C1.93992 34.46 3.34992 35.72 4.91992 36.78C5.90992 35.63 7.60992 34.37 8.61992 34.95C9.56992 35.5 9.61992 37.52 9.26992 38.99C11.0099 39.62 12.8499 40.02 14.7699 40.14C15.0399 38.64 15.8799 36.7 17.0499 36.7ZM2.70992 20.06C2.70992 12.66 8.70992 6.66 16.1099 6.66C23.5099 6.66 29.5099 12.66 29.5099 20.06C29.5099 27.46 23.5099 33.46 16.1099 33.46C8.70992 33.46 2.70992 27.46 2.70992 20.06Z" fill="#9704EC" fill-opacity="0.5"/>
<path d="M27.0502 20.06C27.0502 26.09 22.1402 31 16.1102 31C10.0802 31 5.17016 26.09 5.17016 20.06C5.17016 14.03 10.0802 9.12 16.1102 9.12C22.1402 9.12 27.0502 14.03 27.0502 20.06ZM27.9102 20.06C27.9102 13.54 22.6202 8.25 16.1002 8.25C9.58016 8.25 4.29015 13.54 4.29015 20.06C4.29015 26.58 9.58016 31.87 16.1002 31.87C22.6302 31.87 27.9102 26.58 27.9102 20.06Z" fill="#9704EC" fill-opacity="0.5"/>
<path d="M52.1803 217.62C53.4703 217.62 54.7203 219.66 55.2403 221.37C57.4703 220.98 59.6003 220.27 61.5703 219.3C60.9703 217.61 60.6903 215.11 61.8803 214.43C63.0003 213.78 65.1003 214.92 66.4003 216.15C68.1003 214.72 69.6003 213.05 70.8403 211.2C69.4703 210.03 67.9903 208.02 68.6803 206.82C69.3303 205.7 71.7203 205.64 73.4603 206.05C74.2003 203.99 74.6703 201.81 74.8203 199.53C73.0503 199.2 70.7603 198.2 70.7603 196.82C70.7603 195.53 72.8003 194.28 74.5103 193.76C74.1203 191.53 73.4103 189.4 72.4403 187.43C70.7403 188.03 68.2503 188.31 67.5703 187.12C66.9203 186 68.0603 183.9 69.2903 182.6C67.8603 180.9 66.1903 179.4 64.3403 178.16C63.1703 179.53 61.1503 181.01 59.9603 180.32C58.8403 179.67 58.7803 177.28 59.1903 175.54C57.1403 174.79 54.9503 174.32 52.6703 174.17C52.3403 175.94 51.3403 178.23 49.9603 178.23C48.6703 178.23 47.4203 176.19 46.9003 174.48C44.6703 174.87 42.5403 175.58 40.5703 176.55C41.1703 178.24 41.4503 180.74 40.2603 181.42C39.1403 182.07 37.0403 180.93 35.7403 179.7C34.0403 181.13 32.5403 182.8 31.3003 184.65C32.6703 185.82 34.1503 187.84 33.4603 189.03C32.8103 190.15 30.4203 190.22 28.6803 189.8C27.9303 191.86 27.4603 194.04 27.3103 196.32C29.0803 196.65 31.3703 197.65 31.3703 199.03C31.3703 200.32 29.3303 201.57 27.6203 202.09C28.0103 204.32 28.7203 206.45 29.6903 208.42C31.3803 207.82 33.8803 207.54 34.5603 208.73C35.2103 209.85 34.0703 211.95 32.8403 213.25C34.2703 214.95 35.9403 216.45 37.7903 217.7C38.9603 216.33 40.9803 214.85 42.1703 215.54C43.2903 216.19 43.3503 218.58 42.9403 220.32C44.9903 221.07 47.1803 221.54 49.4603 221.69C49.8003 219.91 50.8003 217.62 52.1803 217.62ZM35.2103 197.93C35.2103 189.17 42.3103 182.07 51.0703 182.07C59.8303 182.07 66.9303 189.17 66.9303 197.93C66.9303 206.69 59.8303 213.79 51.0703 213.79C42.3103 213.78 35.2103 206.68 35.2103 197.93Z" fill="#9704EC" fill-opacity="0.5"/>
<path d="M64.02 197.93C64.02 205.07 58.21 210.88 51.07 210.88C43.93 210.88 38.12 205.07 38.12 197.93C38.12 190.79 43.93 184.98 51.07 184.98C58.21 184.97 64.02 190.78 64.02 197.93ZM65.04 197.93C65.04 190.21 58.78 183.95 51.06 183.95C43.34 183.95 37.08 190.21 37.08 197.93C37.08 205.65 43.34 211.91 51.06 211.91C58.78 211.9 65.04 205.64 65.04 197.93Z" fill="#9704EC" fill-opacity="0.5"/>
<path d="M21.2005 273.02C22.2105 273.02 23.1805 274.6 23.5705 275.93C25.3005 275.62 26.9505 275.08 28.4805 274.32C28.0105 273 27.8005 271.07 28.7205 270.53C29.5905 270.03 31.2205 270.91 32.2305 271.86C33.5505 270.75 34.7205 269.45 35.6805 268.01C34.6205 267.1 33.4705 265.54 34.0005 264.61C34.5005 263.74 36.3605 263.69 37.7105 264.01C38.2905 262.41 38.6505 260.72 38.7705 258.95C37.4005 258.7 35.6205 257.91 35.6205 256.85C35.6205 255.84 37.2005 254.88 38.5305 254.48C38.2205 252.75 37.6805 251.1 36.9205 249.57C35.6005 250.04 33.6705 250.25 33.1305 249.33C32.6305 248.46 33.5105 246.83 34.4605 245.82C33.3505 244.5 32.0505 243.33 30.6105 242.37C29.7005 243.43 28.1405 244.58 27.2105 244.05C26.3405 243.55 26.2905 241.69 26.6105 240.34C25.0105 239.76 23.3205 239.4 21.5505 239.28C21.3005 240.65 20.5205 242.43 19.4505 242.43C18.4405 242.43 17.4705 240.85 17.0805 239.52C15.3505 239.83 13.7005 240.37 12.1705 241.13C12.6405 242.45 12.8505 244.38 11.9305 244.91C11.0605 245.41 9.43051 244.53 8.42051 243.58C7.10051 244.69 5.9305 245.99 4.9705 247.43C6.0305 248.34 7.18051 249.9 6.65051 250.83C6.15051 251.7 4.29051 251.75 2.94051 251.43C2.36051 253.03 2.00051 254.72 1.88051 256.49C3.25051 256.75 5.03051 257.53 5.03051 258.59C5.03051 259.6 3.45051 260.56 2.12051 260.96C2.43051 262.69 2.97051 264.34 3.73051 265.87C5.05051 265.4 6.98051 265.19 7.52051 266.11C8.02051 266.98 7.14051 268.61 6.19051 269.62C7.30051 270.94 8.6005 272.11 10.0405 273.07C10.9505 272.01 12.5105 270.86 13.4405 271.39C14.3105 271.89 14.3605 273.75 14.0405 275.1C15.6405 275.68 17.3305 276.04 19.1005 276.16C19.3505 274.8 20.1305 273.02 21.2005 273.02ZM8.02051 257.73C8.02051 250.93 13.5305 245.42 20.3305 245.42C27.1305 245.42 32.6405 250.93 32.6405 257.73C32.6405 264.53 27.1305 270.04 20.3305 270.04C13.5405 270.04 8.02051 264.53 8.02051 257.73Z" fill="#9704EC" fill-opacity="0.5"/>
<path d="M30.3904 257.73C30.3904 263.28 25.8804 267.79 20.3304 267.79C14.7804 267.79 10.2704 263.28 10.2704 257.73C10.2704 252.18 14.7804 247.67 20.3304 247.67C25.8804 247.67 30.3904 252.18 30.3904 257.73ZM31.1904 257.73C31.1904 251.74 26.3304 246.88 20.3404 246.88C14.3504 246.88 9.49043 251.74 9.49043 257.73C9.49043 263.72 14.3504 268.58 20.3404 268.58C26.3304 268.58 31.1904 263.73 31.1904 257.73Z" fill="#9704EC" fill-opacity="0.5"/>
</svg>
